<svg xmlns="http://www.w3.org/2000/svg" viewBox="0 0 500 500"><g id="freepik--Floor--inject-73"><ellipse cx="250.48" cy="356.58" rx="221.04" ry="130.23" style="fill:#f5f5f5"></ellipse></g><g id="freepik--Shadows--inject-73"><ellipse cx="98.52" cy="357.37" rx="26.26" ry="15.47" style="fill:#e0e0e0"></ellipse><ellipse cx="173.28" cy="398" rx="44.57" ry="26.26" style="fill:#e0e0e0"></ellipse><ellipse cx="298.23" cy="323.09" rx="44.57" ry="26.26" style="fill:#e0e0e0"></ellipse><ellipse cx="345.69" cy="348.53" rx="37.4" ry="22.04" style="fill:#e0e0e0"></ellipse><ellipse cx="393.13" cy="379.78" rx="44.57" ry="26.26" style="fill:#e0e0e0"></ellipse><ellipse cx="223.99" cy="276.4" rx="37.4" ry="22.04" style="fill:#e0e0e0"></ellipse></g><g id="freepik--table-1--inject-73"><path d="M242.26,285.49c-10.09,5.83-26.45,5.83-36.54,0s-10.09-15.27,0-21.1,26.45-5.82,36.54,0S252.35,279.67,242.26,285.49Z" style="fill:#BA68C8"></path><path d="M242.26,285.49c-10.09,5.83-26.45,5.83-36.54,0s-10.09-15.27,0-21.1,26.45-5.82,36.54,0S252.35,279.67,242.26,285.49Z" style="opacity:0.4"></path><path d="M242.26,285.49c-10.09,5.83-26.45,5.83-36.54,0-5-2.91-7.56-6.73-7.56-10.55h0v3.13h0c.09,3.75,2.61,7.48,7.55,10.33,10.09,5.83,26.45,5.83,36.54,0,5.17-3,7.68-6.91,7.56-10.81v-2.38C249.7,278.94,247.19,282.65,242.26,285.49Z" style="fill:#BA68C8"></path><path d="M242.26,285.49c-10.09,5.83-26.45,5.83-36.54,0-5-2.91-7.56-6.73-7.56-10.55h0v3.13h0c.09,3.75,2.61,7.48,7.55,10.33,10.09,5.83,26.45,5.83,36.54,0,5.17-3,7.68-6.91,7.56-10.81v-2.38C249.7,278.94,247.19,282.65,242.26,285.49Z" style="opacity:0.6000000000000001"></path><path d="M220.51,177.87V273c0,4.48,7,4.48,7,0V177.87c0-4.48-7-4.49-7,0Z" style="fill:#BA68C8"></path><path d="M215.89,163.27v21.16h0c0,1.2.79,2.39,2.37,3.31a12.67,12.67,0,0,0,11.47,0c1.58-.92,2.37-2.11,2.37-3.31V163.27Z" style="fill:#BA68C8"></path><path d="M215.89,163.27v21.16h0c0,1.2.79,2.39,2.37,3.31a12.67,12.67,0,0,0,11.47,0c1.58-.92,2.37-2.11,2.37-3.31V163.27Z" style="opacity:0.7000000000000001"></path><ellipse cx="223.99" cy="136.63" rx="47.45" ry="27.4" style="fill:#BA68C8"></ellipse><ellipse cx="223.99" cy="136.63" rx="47.45" ry="27.4" style="opacity:0.4"></ellipse><path d="M257.55,156c-18.53,10.7-48.58,10.7-67.11,0-9.27-5.35-13.9-12.36-13.9-19.38h0v5.76h0c.17,6.87,4.79,13.72,13.88,19,18.53,10.7,48.58,10.7,67.11,0,9.48-5.47,14.1-12.69,13.88-19.86v-4.36C271.22,144,266.6,150.78,257.55,156Z" style="fill:#BA68C8"></path><path d="M257.55,156c-18.53,10.7-48.58,10.7-67.11,0-9.27-5.35-13.9-12.36-13.9-19.38h0v5.76h0c.17,6.87,4.79,13.72,13.88,19,18.53,10.7,48.58,10.7,67.11,0,9.48-5.47,14.1-12.69,13.88-19.86v-4.36C271.22,144,266.6,150.78,257.55,156Z" style="opacity:0.6000000000000001"></path></g><g id="freepik--Plant--inject-73"><path d="M99.77,323.7s-14.56-14.21-6.28-38c4.65-13.35,20-23.15,28.8-24.07a40.89,40.89,0,0,0-6.85,11.55l-11,7.33,10.15-3.17L112.39,286s-9.44,5.71-10.84,6.95l10.18-2.66S111,314.87,99.77,323.7Z" style="fill:#BA68C8"></path><path d="M99.77,323.7s-14.56-14.21-6.28-38c4.65-13.35,20-23.15,28.8-24.07a40.89,40.89,0,0,0-6.85,11.55l-11,7.33,10.15-3.17L112.39,286s-9.44,5.71-10.84,6.95l10.18-2.66S111,314.87,99.77,323.7Z" style="opacity:0.4"></path><path d="M99.77,323.7s-7.54-29.75,3.61-47.1C103.38,276.6,90.31,291.91,99.77,323.7Z" style="fill:#fff"></path><path d="M116.43,327.73l-17.81-.22h-.19l-17.81.22s-.2,21.95,6.56,30.88h0c1.87,2.37,6.24,4,11.34,4s9.5-1.68,11.36-4.06C116.63,349.66,116.43,327.73,116.43,327.73Z" style="fill:#37474f"></path><ellipse cx="98.52" cy="327.73" rx="17.9" ry="9.61" style="fill:#455a64"></ellipse><path d="M98.52,325.18c6.16,0,11.38,2,13.22,4.71a3.81,3.81,0,0,0,.71-2.16c0-3.79-6.23-6.87-13.93-6.87s-13.92,3.08-13.92,6.87a3.81,3.81,0,0,0,.71,2.16C87.15,327.16,92.36,325.18,98.52,325.18Z" style="fill:#263238"></path><path d="M98.52,325.18c-6.16,0-11.37,2-13.21,4.71,1.84,2.74,7,4.72,13.21,4.72s11.38-2,13.22-4.72C109.9,327.16,104.68,325.18,98.52,325.18Z" style="fill:#e0e0e0"></path><path d="M98.74,331.08s-6.9-.27-12.82-9.43c-2.44-3.78-3.61-5.77-3.61-5.77l9.61-.71-10.77-2.69-5.09-7.79,9-.66s-6.67-2.34-11.42-2.37c0,0-8.25-14.57-10.67-16.65A46.79,46.79,0,0,1,95.51,301.2C109.07,317.24,100.76,331.49,98.74,331.08Z" style="fill:#BA68C8"></path><path d="M98.74,331.08s4.32-26-23.22-41.63C75.52,289.45,104.1,303.18,98.74,331.08Z" style="fill:#fff"></path><path d="M98.74,331.08s6.25.41,12.46-7.3c2.56-3.18,3.8-4.86,3.8-4.86l-8.6-1.55,10-1.42,5.32-6.54-8-1.45s6.23-1.47,10.52-1c0,0,8.81-12.37,11.19-14a42.44,42.44,0,0,0-30.93,11.54C90.73,317.62,96.89,331.26,98.74,331.08Z" style="fill:#BA68C8"></path><path d="M98.74,331.08s6.25.41,12.46-7.3c2.56-3.18,3.8-4.86,3.8-4.86l-8.6-1.55,10-1.42,5.32-6.54-8-1.45s6.23-1.47,10.52-1c0,0,8.81-12.37,11.19-14a42.44,42.44,0,0,0-30.93,11.54C90.73,317.62,96.89,331.26,98.74,331.08Z" style="opacity:0.2"></path><path d="M98.74,331.08s-1.44-23.86,24.88-35.37C123.62,295.71,96.54,305.41,98.74,331.08Z" style="fill:#fff"></path></g><g id="freepik--character-2--inject-73"><path d="M302.85,306s-1.78,1-2.11,4.79S297,321.68,305.14,322s7,.71,10.34,2.05,10.5,4.34,16.22.3-.88-6.19-3.26-7-8.49-3.15-12-5.84-4-3.55-4-3.55Z" style="fill:#263238"></path><path d="M276.59,315.47s-1.4.4-1.47,3.2-2.27,7,.73,9.56,3.45,2.2,5.27,6.07,6,9.12,14.73,7.19,3.23-7.17,2.48-7.94-9.25-9.21-10.19-12a27.82,27.82,0,0,0-1.9-4.45Z" style="fill:#263238"></path><path d="M276.54,312v5.14s.62,2.43,5.41,2.43c2.56,0,4.24-1.53,4.29-2.43v-5.65Z" style="fill:#ffa8a7"></path><path d="M302.76,302.78v5.15s.62,2.42,5.4,2.42c2.57,0,4.25-1.53,4.29-2.43v-5.65Z" style="fill:#ffa8a7"></path><path d="M317.38,182.54l3.69,59.53a42.27,42.27,0,0,1-.32,8.41l-7.59,55.08s-6.1,2.71-11.25-1.57l-3-44A27.48,27.48,0,0,1,300.43,249l1.17-3.33-10.65-59Z" style="fill:#455a64"></path><path d="M310.08,198.12s-1.8,7-10.8,11.39l-1.81,13.27-3.9-21.6Z" style="fill:#37474f"></path><path d="M313,184.94s1.27,11.28-7.44,18.57a17.59,17.59,0,0,1-8.53,4.15l-2.87,41.84-7,65.37s-4.22,3.53-12,0l-3.69-49a32.37,32.37,0,0,1,2.89-16l.17-.35a565.61,565.61,0,0,1-2.1-65.42Z" style="fill:#455a64"></path><path d="M324.92,141.65l3.16,6.27s14.16,5,22.52,4.84l3.63,8.8a159.47,159.47,0,0,1-20.17.22c-9.85-.63-11.31-.88-14.22-4.62s-7.24-10.61-7.24-10.61Z" style="fill:#ffa8a7"></path><path d="M350.6,152.76a14.29,14.29,0,0,0,2.13-1.78c.88-.94,1.4-1.9,5.07-2.8,2.37-.59,2.82-2.45,4.1-1.83s-.93,4.82-3.47,5.52a11.34,11.34,0,0,0,5.39-.72c2.15-1.09,5.53-2.58,6.89-2.11s1.56,8-3.37,10.83-15.11,1.5-15.11,1.5Z" style="fill:#ffa8a7"></path><path d="M302.88,113.44h0a10.54,10.54,0,0,1,11.36,5.37l12,22.39S323,148,312.6,148.37Z" style="fill:#BA68C8"></path><path d="M302.88,113.44h0a10.54,10.54,0,0,1,11.36,5.37l12,22.39S323,148,312.6,148.37Z" style="fill:#fff;opacity:0.2"></path><path d="M272.9,152.73l-3.58,9.2-3.75,31.12-9,2.85s-.76-18.72-.38-31.3a32.24,32.24,0,0,1,1.86-9.87l2.52-7.09Z" style="fill:#ffa8a7"></path><path d="M286,116.63l-11.36,3.25-2.2,31.73v32.47s7.06,6.12,23.83,6.12a35.06,35.06,0,0,0,21.16-7.66V141.65c0-3.66,1.46-24.62-14.5-28.21l-2.73.54Z" style="fill:#BA68C8"></path><path d="M286,116.63l-11.36,3.25-2.2,31.73v32.47s7.06,6.12,23.83,6.12a35.06,35.06,0,0,0,21.16-7.66V141.65c0-3.66,1.46-24.62-14.5-28.21l-2.73.54Z" style="fill:#fff;opacity:0.5"></path><path d="M281,118s3.79,3.75,1.06,14.28A214.91,214.91,0,0,1,274,155.75a16,16,0,0,1-15.42-5.67l8.07-22.34a12.93,12.93,0,0,1,8.59-8Z" style="fill:#BA68C8"></path><path d="M281,118s3.79,3.75,1.06,14.28A214.91,214.91,0,0,1,274,155.75a16,16,0,0,1-15.42-5.67l8.07-22.34a12.93,12.93,0,0,1,8.59-8Z" style="fill:#fff;opacity:0.2"></path><path d="M265.57,193.05a14.06,14.06,0,0,0,1.64,2.23c.88.95,1.8,1.52,2.47,5.25.43,2.4,2.26,3,1.56,4.21s-4.75-1.24-5.29-3.83a11.45,11.45,0,0,0,.38,5.44c.95,2.21,2.21,5.68,1.66,7s-8.08,1-10.59-4.07-.52-15.17-.52-15.17Z" style="fill:#ffa8a7"></path><path d="M313.21,76.71s2.66,2.72,2.66,9.84S310,99.87,310,99.87V77.05Z" style="fill:#263238"></path><path d="M313.21,78.57a8.19,8.19,0,0,0,4.1-6.43c.38-4.55-2.29-2.92-3.22-2.52s-3.67,1.4-3.67,1.4,2.54-2.64,1-4.4c-1.12-1.31-6.5,2.8-13.32,3.6s-13.34.74-15.25,6.83c0,0-6.58,1.33-5,12.86s6,18.18,8.08,18.08Z" style="fill:#263238"></path><path d="M286,116.63l5.94,3.76a8.52,8.52,0,0,0,8.83.18h0a3.58,3.58,0,0,0,.2-6.07l-.77-.52V97.58H286Z" style="fill:#ffa8a7"></path><path d="M300.15,114a15.67,15.67,0,0,1-13-11.62V97.58h13Z" style="fill:#f28f8f"></path><path d="M303.46,74.31s13.51.51,11.07,22.26c-1.14,10.23-2,15.89-10.74,15.89S282.12,105.86,283,88.3,303.46,74.31,303.46,74.31Z" style="fill:#ffa8a7"></path><polygon points="304.82 92.24 304.82 99.87 309.29 98.5 304.82 92.24" style="fill:#f28f8f"></polygon><path d="M298.29,93.56A1.56,1.56,0,1,0,299.85,92,1.55,1.55,0,0,0,298.29,93.56Z" style="fill:#263238"></path><path d="M308.52,92.47a1.56,1.56,0,1,0,1.56-1.55A1.56,1.56,0,0,0,308.52,92.47Z" style="fill:#263238"></path><path d="M312,89.24l-3-1.81s1.17-1.21,2.33-.48A2.12,2.12,0,0,1,312,89.24Z" style="fill:#263238"></path><path d="M299,88.71l-2.74,2.23s-.74-1.51.34-2.35A2.13,2.13,0,0,1,299,88.71Z" style="fill:#263238"></path><path d="M304.11,103.5s-5.54-1.43-4.19-1.12c0,0-.28,2.21,1.57,2.63A2.39,2.39,0,0,0,304.11,103.5Z" style="fill:#f28f8f"></path><path d="M313.21,78.57s-4.31,4-15.36,3.21S287.75,84,289,89.19c.83,3.56.9,13-1.85,8.39h-5.47V86.65a14,14,0,0,1,14-14h11.31Z" style="fill:#263238"></path><path d="M287.24,97s-.55-5.23-4.18-5.33c-4-.11-4.53,3.73-4.48,5.09.15,3.59,3.05,7.47,8.46,7.62Z" style="fill:#ffa8a7"></path><path d="M282.88,77.05s-2.8-3.71-1-5.25,2.62,4.84,2.62,4.84Z" style="fill:#263238"></path><path d="M283.11,78.28s-4.65-.06-4.76-2.42,5.43.88,5.43.88Z" style="fill:#263238"></path></g><g id="freepik--table-2--inject-73"><ellipse cx="345.69" cy="341.66" rx="25.84" ry="14.92" style="fill:#BA68C8"></ellipse><ellipse cx="345.69" cy="341.66" rx="25.84" ry="14.92" style="opacity:0.4"></ellipse><path d="M364,352.21c-10.09,5.83-26.45,5.83-36.54,0-5.05-2.91-7.57-6.73-7.57-10.55h0v3.13h0c.09,3.75,2.61,7.47,7.56,10.33,10.09,5.83,26.45,5.83,36.54,0,5.16-3,7.67-6.91,7.55-10.81v-2.38C371.4,345.66,368.88,349.37,364,352.21Z" style="fill:#BA68C8"></path><path d="M364,352.21c-10.09,5.83-26.45,5.83-36.54,0-5.05-2.91-7.57-6.73-7.57-10.55h0v3.13h0c.09,3.75,2.61,7.47,7.56,10.33,10.09,5.83,26.45,5.83,36.54,0,5.16-3,7.67-6.91,7.55-10.81v-2.38C371.4,345.66,368.88,349.37,364,352.21Z" style="opacity:0.6000000000000001"></path><path d="M342.21,244.59v95.17c0,4.47,7,4.48,7,0V244.59c0-4.48-7-4.49-7,0Z" style="fill:#BA68C8"></path><path d="M337.58,230v21.16h0c0,1.2.79,2.39,2.38,3.31a12.71,12.71,0,0,0,11.46,0c1.58-.92,2.37-2.11,2.37-3.31V230Z" style="fill:#BA68C8"></path><path d="M337.58,230v21.16h0c0,1.2.79,2.39,2.38,3.31a12.71,12.71,0,0,0,11.46,0c1.58-.92,2.37-2.11,2.37-3.31V230Z" style="opacity:0.7000000000000001"></path><ellipse cx="345.69" cy="203.35" rx="47.45" ry="27.4" style="fill:#BA68C8"></ellipse><ellipse cx="345.69" cy="203.35" rx="47.45" ry="27.4" style="opacity:0.4"></ellipse><path d="M379.24,222.73c-18.53,10.7-48.58,10.7-67.11,0-9.26-5.35-13.9-12.37-13.9-19.38h0v5.76h0c.17,6.87,4.79,13.72,13.88,19,18.53,10.7,48.58,10.7,67.11,0,9.49-5.47,14.1-12.69,13.88-19.86v-4.36C392.91,210.69,388.29,217.5,379.24,222.73Z" style="fill:#BA68C8"></path><path d="M379.24,222.73c-18.53,10.7-48.58,10.7-67.11,0-9.26-5.35-13.9-12.37-13.9-19.38h0v5.76h0c.17,6.87,4.79,13.72,13.88,19,18.53,10.7,48.58,10.7,67.11,0,9.49-5.47,14.1-12.69,13.88-19.86v-4.36C392.91,210.69,388.29,217.5,379.24,222.73Z" style="opacity:0.6000000000000001"></path><path d="M333.62,174H312.29l1.92,22.57h0a4.51,4.51,0,0,0,2.54,3.31,13.73,13.73,0,0,0,12.39,0,4.55,4.55,0,0,0,2.55-3.31h0Z" style="fill:#BA68C8"></path><path d="M335,172.81V171h-.42a7.37,7.37,0,0,0-3.1-3.11c-4.7-2.71-12.31-2.71-17,0a7.37,7.37,0,0,0-3.1,3.11h-.42v1.8c0,1.78,1.18,3.56,3.52,4.91,4.7,2.71,12.31,2.71,17,0C333.81,176.37,335,174.59,335,172.81Z" style="fill:#e0e0e0"></path><ellipse cx="322.96" cy="171.13" rx="12.02" ry="6.94" style="fill:#ebebeb"></ellipse><path d="M332.59,170.38V169h-.34a5.79,5.79,0,0,0-2.48-2.49,15.08,15.08,0,0,0-13.63,0,5.79,5.79,0,0,0-2.48,2.49h-.34v1.44c0,1.43.94,2.85,2.82,3.94a15.08,15.08,0,0,0,13.63,0C331.66,173.24,332.6,171.81,332.59,170.38Z" style="fill:#e0e0e0"></path><path d="M329.77,173a15.08,15.08,0,0,1-13.63,0c-3.76-2.18-3.76-5.7,0-7.87a15.08,15.08,0,0,1,13.63,0C333.53,167.27,333.53,170.79,329.77,173Z" style="fill:#f5f5f5"></path><path d="M328.2,171.82a11.61,11.61,0,0,1-10.49,0c-2.8-1.62-2.9-4.2-.29-5.88l.29-.18a9.28,9.28,0,0,1,2-.83,11.78,11.78,0,0,1,8.46.83C331.1,167.43,331.1,170.15,328.2,171.82Z" style="fill:#f0f0f0"></path><path d="M317.71,166.62a11.61,11.61,0,0,1,10.49,0,4,4,0,0,1,2.14,2.6c.21-1.23-.5-2.51-2.14-3.46a11.61,11.61,0,0,0-10.49,0c-1.64,1-2.35,2.23-2.13,3.46A3.94,3.94,0,0,1,317.71,166.62Z" style="fill:#e0e0e0"></path><path d="M321.68,166.91l-2.16,1.37-2.1-1.51v-.83l.29-.18a9.28,9.28,0,0,1,2-.83v.63Z" style="fill:#e0e0e0"></path><path d="M378.52,186.53H357.2l1.91,22.57h0a4.5,4.5,0,0,0,2.54,3.3,13.69,13.69,0,0,0,12.4,0,4.5,4.5,0,0,0,2.54-3.3h0Z" style="fill:#BA68C8"></path><path d="M379.88,185.29V183.5h-.42a7.3,7.3,0,0,0-3.1-3.1c-4.69-2.71-12.31-2.71-17,0a7.24,7.24,0,0,0-3.1,3.1h-.43v1.81c0,1.77,1.18,3.55,3.53,4.91,4.69,2.71,12.31,2.71,17,0C378.72,188.86,379.89,187.07,379.88,185.29Z" style="fill:#e0e0e0"></path><ellipse cx="367.86" cy="183.61" rx="12.02" ry="6.94" style="fill:#ebebeb"></ellipse><path d="M377.49,182.87v-1.44h-.33a5.93,5.93,0,0,0-2.49-2.49,15.06,15.06,0,0,0-13.62,0,5.93,5.93,0,0,0-2.49,2.49h-.34v1.45c0,1.42.95,2.84,2.83,3.93a15.06,15.06,0,0,0,13.62,0C376.56,185.72,377.5,184.29,377.49,182.87Z" style="fill:#e0e0e0"></path><path d="M374.67,185.45a15.06,15.06,0,0,1-13.62,0c-3.77-2.17-3.77-5.69,0-7.87a15.06,15.06,0,0,1,13.62,0C378.43,179.76,378.43,183.28,374.67,185.45Z" style="fill:#f5f5f5"></path><path d="M373.1,184.3a11.55,11.55,0,0,1-10.49,0c-2.8-1.61-2.9-4.2-.29-5.87a2.29,2.29,0,0,1,.29-.18,8.73,8.73,0,0,1,2-.83,11.67,11.67,0,0,1,8.46.83C376,179.92,376,182.63,373.1,184.3Z" style="fill:#f0f0f0"></path><path d="M362.61,179.11a11.61,11.61,0,0,1,10.49,0,4,4,0,0,1,2.14,2.6c.21-1.24-.5-2.51-2.14-3.46a11.61,11.61,0,0,0-10.49,0c-1.63.95-2.34,2.22-2.13,3.46A4,4,0,0,1,362.61,179.11Z" style="fill:#e0e0e0"></path><path d="M366.58,179.4l-2.16,1.37-2.1-1.51v-.83a2.29,2.29,0,0,1,.29-.18,8.73,8.73,0,0,1,2-.83V178Z" style="fill:#e0e0e0"></path></g><g id="freepik--character-3--inject-73"><path d="M434.63,196.32,441.25,215a12.3,12.3,0,0,1-1.62,11.29l-10.05,13.95-7.18-10.47L429,219.41l-5.87-12.63v-4.91Z" style="fill:#945959"></path><path d="M419,174s5-.5,7.6,3.5,8,18.78,8,18.78a20.27,20.27,0,0,1-12.71,7Z" style="fill:#BA68C8"></path><path d="M419,174s5-.5,7.6,3.5,8,18.78,8,18.78a20.27,20.27,0,0,1-12.71,7Z" style="fill:#fff;opacity:0.30000000000000004"></path><path d="M427.42,377.26a4.73,4.73,0,0,1-4.15,2.52,7.71,7.71,0,0,1-7-5.24,17.41,17.41,0,0,0-4.94-6.84c-1.05-1.12-5.08-4.75-5.5-8.6a6.06,6.06,0,0,0,0,.75c0,4.09,4.43,8.08,5.54,9.26A17.32,17.32,0,0,1,416.3,376a7.71,7.71,0,0,0,7,5.23,4.72,4.72,0,0,0,4.15-2.51,3.38,3.38,0,0,0,.23-2.11A3.35,3.35,0,0,1,427.42,377.26Z" style="fill:#263238"></path><path d="M426.69,366.92l.21.23a2.87,2.87,0,0,1,.74,2.18c-.08.87-.16,2.12-.16,3.47,0,2.52.57,3.08-.06,4.46a4.73,4.73,0,0,1-4.15,2.52,7.71,7.71,0,0,1-7-5.24,17.41,17.41,0,0,0-4.94-6.84c-1.11-1.18-5.54-5.17-5.54-9.25a5.37,5.37,0,0,1,5.4-5.53c2,0,4.72,1.18,6.81,4.21S426.69,366.92,426.69,366.92Z" style="fill:#BA68C8"></path><g style="opacity:0.30000000000000004"><path d="M426.69,366.92l.21.23a2.87,2.87,0,0,1,.74,2.18c-.08.87-.16,2.12-.16,3.47,0,2.52.57,3.08-.06,4.46a4.73,4.73,0,0,1-4.15,2.52,7.71,7.71,0,0,1-7-5.24,17.41,17.41,0,0,0-4.94-6.84c-1.11-1.18-5.54-5.17-5.54-9.25a5.37,5.37,0,0,1,5.4-5.53c2,0,4.72,1.18,6.81,4.21S426.69,366.92,426.69,366.92Z"></path></g><path d="M412.94,362.38a.42.42,0,0,1-.26-.08.5.5,0,0,1-.16-.68c.11-.16,2.54-3.92,6.68-3.5a.49.49,0,0,1-.1,1c-3.55-.37-5.72,3-5.74,3A.51.51,0,0,1,412.94,362.38Z" style="fill:#ebebeb"></path><path d="M415.38,364.79A.48.48,0,0,1,415,364c.1-.16,2.52-3.93,6.68-3.51a.5.5,0,0,1,.44.54.49.49,0,0,1-.54.44c-3.55-.36-5.73,3-5.75,3.05A.48.48,0,0,1,415.38,364.79Z" style="fill:#ebebeb"></path><path d="M417.52,356.47a8.43,8.43,0,0,0-6.3-3.55,5.37,5.37,0,0,0-5.4,5.53,10.18,10.18,0,0,0,2.46,5.85,7.8,7.8,0,0,1,4.74-6.87A13.62,13.62,0,0,1,417.52,356.47Z" style="fill:#fafafa"></path><path d="M431.48,312.2l-1.4-4.39,2.52-36.9L410,278.45l.93,32.26a45.75,45.75,0,0,0,.43,5.1L416,348.6c.81.8,3.09,2.57,7.43,2.57a8.14,8.14,0,0,0,6.11-2.64l3.15-20.11A35.37,35.37,0,0,0,431.48,312.2Z" style="fill:#945959"></path><path d="M423.47,351.17c-4.34,0-6.62-1.77-7.43-2.57l2.79,19.74c5.44,3.72,7.64,0,7.64,0l3.11-19.81A8.14,8.14,0,0,1,423.47,351.17Z" style="fill:#BA68C8"></path><path d="M423.47,351.17c-4.34,0-6.62-1.77-7.43-2.57l2.79,19.74c5.44,3.72,7.64,0,7.64,0l3.11-19.81A8.14,8.14,0,0,1,423.47,351.17Z" style="fill:#fff;opacity:0.5"></path><path d="M390.15,377.18l-4.09,3s-10.38.81-13.31,1-6.61,1.52-7.41,4.69c-.7,2.76.82,5.62,8.07,6.54s9.75-.77,15,.12c5,.85,12,3.14,15.44-2.68a2.63,2.63,0,0,0,.28-2.05c-.39-1.49-1.1-4.23-1.27-5.2-.23-1.35-.43-5.86-1.71-5.86S390.15,377.18,390.15,377.18Z" style="fill:#BA68C8"></path><path d="M390.15,377.18l-4.09,3s-10.38.81-13.31,1-6.61,1.52-7.41,4.69c-.7,2.76.82,5.62,8.07,6.54s9.75-.77,15,.12c5,.85,12,3.14,15.44-2.68a2.63,2.63,0,0,0,.28-2.05c-.39-1.49-1.1-4.23-1.27-5.2-.23-1.35-.43-5.86-1.71-5.86S390.15,377.18,390.15,377.18Z" style="opacity:0.30000000000000004"></path><path d="M404.16,389a2.35,2.35,0,0,1-.31.85c-3.45,5.82-10.47,3.53-15.45,2.68-5.24-.89-7.74.8-15-.12-5.77-.74-7.9-2.69-8.19-4.85-.32,2.56,1.47,5.07,8.19,5.93,7.25.92,9.75-.77,15,.12,5,.84,12.34,3.48,15.79-2.34A3.35,3.35,0,0,0,404.16,389Z" style="fill:#37474f"></path><path d="M388,358.48l2.12,18.7s.42,4,5.69,4,5.31-4.49,5.31-4.49l1.36-18.24Z" style="fill:#BA68C8"></path><path d="M388,358.48l2.12,18.7s.42,4,5.69,4,5.31-4.49,5.31-4.49l1.36-18.24Z" style="fill:#fff;opacity:0.5"></path><path d="M382.46,285v17.17a79.21,79.21,0,0,0,.45,8.43L388,358.48s8.14,6.16,14.48,0L405,329.59a47.28,47.28,0,0,0-2.3-19.25h0l5-25.38Z" style="fill:#945959"></path><path d="M376.23,380.92c-1.45.11-2.72.2-3.48.24-2.92.18-6.61,1.52-7.41,4.69-.7,2.76.82,5.62,8.07,6.54C372.09,383.83,376.23,380.93,376.23,380.92Z" style="fill:#fafafa"></path><path d="M377.8,386a.49.49,0,0,1-.5-.49,7.43,7.43,0,0,1,2.56-5.26.49.49,0,0,1,.69.07.5.5,0,0,1-.07.7,6.5,6.5,0,0,0-2.19,4.49A.49.49,0,0,1,377.8,386Z" style="fill:#ebebeb"></path><path d="M382.09,385.77a.49.49,0,0,1-.49-.49,7.41,7.41,0,0,1,2.55-5.25.48.48,0,0,1,.69.06.49.49,0,0,1-.06.7,6.52,6.52,0,0,0-2.2,4.49A.49.49,0,0,1,382.09,385.77Z" style="fill:#ebebeb"></path><path d="M387.93,225.44s-5.47,12.1-5.47,23.47v35.94a40.13,40.13,0,0,0,30.3,7.45c17.85-2.94,21.26-8.85,21.26-8.85v-26A61.84,61.84,0,0,0,426,227l-2.39-4.23Z" style="fill:#455a64"></path><path d="M387.93,219v6.45s4.84,4.31,17.66,4.31,18-7,18-7L421,218.56Z" style="fill:#BA68C8"></path><path d="M387.93,219v6.45s4.84,4.31,17.66,4.31,18-7,18-7L421,218.56Z" style="opacity:0.30000000000000004"></path><path d="M396.64,178.64,392,180.27l-8,17.27v12.8l3.87,8.65a29.57,29.57,0,0,0,17.49,5.51c10.81,0,15.55-5.94,15.55-5.94s2.94-13.09,5-21.46-1.51-20-7-23.06l-7.25,1.19Z" style="fill:#BA68C8"></path><path d="M390.05,206.39s-10.93,17.31-12.63,20.27-6.57,5.5-16.94-5-13.48-14-13.48-14-13.62-4.76-16.8-8.6-4.44-9.44-1.82-8.55,16.86,6,18.47,1.66a10.26,10.26,0,0,1-1-4.16c0-2.16.94-3.93,2.15-3.93s.86,2.17,1.71,3.93,6.14,9,5.24,12.38L370,212.55l7.43-14.45Z" style="fill:#945959"></path><path d="M408.23,178.81c-5.24,1.67-11.59-.17-11.59-.17V160.92h15.13v14.31A5.27,5.27,0,0,1,408.23,178.81Z" style="fill:#945959"></path><polygon points="385.75 149.99 385.75 158 381.07 156.56 385.75 149.99" style="fill:#703838"></polygon><path d="M410.45,129.16c-3.12-.82-14-3-23.73,5.07-2.15,1.79-4.61,6.56-5.4,12.52a16.53,16.53,0,0,0,4,2.15Z" style="fill:#263238"></path><path d="M403.62,132.45c-4.77-.53-15.19,1-17.73,13.36s-2.48,22.14,3.86,23.78,21.79-1.39,25.56-17.31S408.27,133,403.62,132.45Z" style="fill:#945959"></path><path d="M390.44,135.45s-1.65,6.47.88,11.54a10.54,10.54,0,0,1,.54,8.41,12.48,12.48,0,0,1-2.18,3.79s5.22-.72,5.22-5a43.28,43.28,0,0,1,2.12,7.43c.43,3,2.25,5.58,7.9,7.15,2.75.76,6.26.41,8.07-.72,0,0,5.54-3.77,7.76-6.85s7-14,2-22.59S405.15,122.89,390.44,135.45Z" style="fill:#263238"></path><path d="M394.9,154.2s.63-5.25,4.28-5.3c4-.06,4.5,3.81,4.43,5.18-.19,3.6-2.38,7.12-8.71,5.11Z" style="fill:#945959"></path><path d="M420.28,165.56a4.16,4.16,0,1,1-4.16-4.16A4.16,4.16,0,0,1,420.28,165.56Z" style="fill:#BA68C8"></path><path d="M416.48,169a4.76,4.76,0,0,1-1.68-2.58,3.44,3.44,0,0,1,.76-3.29,3.49,3.49,0,0,1,2.54-1,15,15,0,0,1,4.6.7c4.39,1.52,7.81,7.94,3.23,18-1.36,3-1.74,7.42.85,9a.34.34,0,0,1-.18.64c-3.83,0-12.14-1.07-9.72-9.85C419,172.85,417.74,170,416.48,169Z" style="fill:#263238"></path><path d="M390.44,135.45s-4.21,3.14-3.5,13.94a8.41,8.41,0,0,0,4.36.85s-.43-5.85,1.89-10.37Z" style="fill:#263238"></path><path d="M392,180.27a19.3,19.3,0,0,0-8.71,7.24c-2.38,3.69-5.89,10.59-5.89,10.59a19.47,19.47,0,0,0,12.63,8.29s3.63-6.16,4.67-7.68,5.61-12.86-1.15-19Z" style="fill:#BA68C8"></path><path d="M392,180.27a19.3,19.3,0,0,0-8.71,7.24c-2.38,3.69-5.89,10.59-5.89,10.59a19.47,19.47,0,0,0,12.63,8.29s3.63-6.16,4.67-7.68,5.61-12.86-1.15-19Z" style="fill:#fff;opacity:0.30000000000000004"></path></g><g id="freepik--character-1--inject-73"><path d="M170.36,376.81V377a14.91,14.91,0,0,1-1.17,5.58,11.45,11.45,0,0,0-.81,4.4v6.17a1,1,0,0,1-1,1h0a1,1,0,0,1-1-1v-9.51Z" style="fill:#263238"></path><path d="M167.2,370.51s-3.31,2.44-3.31,8.89-4.79,12.11-7.22,13.57-7.82-2-7.82-2-5.73,4.86-5.73,7.06,2.8,4,9.28,3.08,11.86-1.83,12.87-8.84c1.18-8.2,1.22-9.25,3.69-11.95S170.49,372,167.2,370.51Z" style="fill:#263238"></path><path d="M168.21,353.67l-1.06,15.7s-.86,24.36-12.55,24.36h-6.08c-.27,0,0-3.93,0-3.93s6.71-9.77,7.21-19.47l-.6-16.66Z" style="fill:#945959"></path><path d="M167.15,369.37s-2.67,1.93-3.36,8.88c-.76,7.77-4.86,12.12-7.33,13.57s-7.94-2-7.94-2-5.82,4.87-5.82,7.06,2.85,4,9.42,3.09,10.89-2.07,12.1-9,1.24-8.62,3.75-11.32S172.11,374.37,167.15,369.37Z" style="fill:#37474f"></path><path d="M160.3,233l-6,54.22a182.53,182.53,0,0,0-.91,29l1.78,37.46s7,4.93,13.08,0l4.85-27.45a29.4,29.4,0,0,0-1-14.21h0l11.07-34.33-5.34-43.59Z" style="fill:#455a64"></path><path d="M163.43,249.5s3,8.67,11.5,11.46l3.66,30.78,4.53-14.06-3.45-28.18Z" style="fill:#37474f"></path><path d="M205.08,391.86V392a14.72,14.72,0,0,1-1.17,5.58,11.45,11.45,0,0,0-.81,4.4v6.17a1,1,0,0,1-1,1h0a1,1,0,0,1-1-1v-9.51Z" style="fill:#263238"></path><path d="M201.92,385.56s-3.3,2.44-3.3,8.89-4.8,12.11-7.23,13.57-7.81-2-7.81-2-5.74,4.86-5.74,7.06,2.81,4,9.28,3.08S199,414.31,200,407.3c1.18-8.2,1.22-9.25,3.69-11.95S205.21,387.06,201.92,385.56Z" style="fill:#263238"></path><path d="M202.94,368.72l-1.07,15.7s-.86,24.36-12.55,24.36h-6.08c-.27,0,0-3.93,0-3.93s6.72-9.77,7.21-19.47l-.6-16.66Z" style="fill:#945959"></path><path d="M201.87,384.42s-2.67,1.93-3.35,8.88c-.76,7.77-4.87,12.12-7.34,13.57s-7.94-2-7.94-2-5.82,4.87-5.82,7.06,2.85,4,9.43,3.09,10.88-2.07,12.09-9,1.25-8.62,3.75-11.32S206.84,389.42,201.87,384.42Z" style="fill:#37474f"></path><path d="M195.42,232.7s13.32,14.69,13.32,31.37S205,316.43,205,316.43l1.06,2.64a26.36,26.36,0,0,1,1.67,13.26l-4.81,36.45s-5.45,5-13.09,0l-4-49.13-9.65-62.39a26.73,26.73,0,0,1-12.72-7.76V232.34Z" style="fill:#455a64"></path><path d="M160.1,226.49l.2,6.49s4.11,3.61,16.68,3.61S195.42,233,195.42,233v-7Z" style="fill:#37474f"></path><path d="M168.3,183.5c-2.7.31-10.37-.78-14.81,10.36s-8.4,22.3-8.4,22.3l-8.15-8.45S127.4,193.4,125.14,195s-1.45,4.16-.81,6,3,7.58,3.81,9.15,10.55,24,19.32,24c5.87,0,12.31-19.79,12.31-19.79Z" style="fill:#945959"></path><path d="M198.75,204.05c-.07.46-.13.92-.2,1.38-2,14.33-3.13,20.52-3.13,20.52a55.72,55.72,0,0,1-20.49,4c-11.5,0-14.83-3.45-14.83-3.45L159,214.72s-4.55-3.44-4.55-11.44,13.88-19.62,13.88-19.62l4.16-.2,14.3.51,9.83.87L198,185S200.89,188.73,198.75,204.05Z" style="fill:#BA68C8"></path><path d="M191.6,142a5.81,5.81,0,0,0,1.36-4.54c-.23-3,2.64-.83,2.87.91s-1.54,4.33-3.19,4.9Z" style="fill:#263238"></path><path d="M192.65,142.56a5.77,5.77,0,0,0,4.4-1.73c2.25-2.05,2.29,1.56,1.06,2.83s-4.35,1.45-5.82.5Z" style="fill:#263238"></path><path d="M202.58,170a8.06,8.06,0,0,1-2.53-6c.16-4.92-.48-12.25-4.6-18.41-6.91-10.35-15.77-9.68-23-9s-15.39-2.31-17.64,1.58c-4,7,1.27,9,1.27,9-3.5,8.1,4.85,10.09,4.85,10.09l4.23,11.4a5.58,5.58,0,0,0-2.46-.34,5.76,5.76,0,0,0-5.12,6,5.6,5.6,0,0,0,7.62,4.93,5.63,5.63,0,0,0,5,3.13,5.69,5.69,0,0,0,2.7-.68,13.49,13.49,0,0,1,6.47-1.83h2.37a13.56,13.56,0,0,1,6.46,1.82,5.63,5.63,0,0,0,7.85-2.67,5.43,5.43,0,0,0,4.22.33,5.63,5.63,0,0,0,2.27-9.35Z" style="fill:#263238"></path><path d="M172.46,175.48v8s-9.15,11.06-.23,11.86S186.76,184,186.76,184V167.31Z" style="fill:#945959"></path><path d="M187.22,162.37v.54c-3.34,13.18-12,16.05-14.82,16.72l-.11-20.4,14.5-.07Z" style="fill:#703838"></path><path d="M175,138.86c-4.74.38-14.61,3.85-14.75,16.36s1.76,22,8.24,22.43,21-5.45,21.64-21.68S179.63,138.48,175,138.86Z" style="fill:#945959"></path><polygon points="170.13 160.24 170.24 167.58 165.92 166.33 170.13 160.24" style="fill:#703838"></polygon><path d="M175.45,160a1.5,1.5,0,1,1-1.51-1.47A1.5,1.5,0,0,1,175.45,160Z" style="fill:#263238"></path><path d="M165.6,159.14a1.5,1.5,0,1,1-1.52-1.48A1.49,1.49,0,0,1,165.6,159.14Z" style="fill:#263238"></path><path d="M162.24,156.07l2.9-1.78s-1.14-1.15-2.25-.43A2,2,0,0,0,162.24,156.07Z" style="fill:#BA68C8"></path><path d="M171.63,169.91a37.13,37.13,0,0,0,3.66-2s.77,2-.86,2.82A2.31,2.31,0,0,1,171.63,169.91Z" style="fill:#703838"></path><path d="M163.32,144.06s3.19,17,26.53,15.61c0,0,5.64-17.6-8.72-22S163.32,144.06,163.32,144.06Z" style="fill:#263238"></path><path d="M162.24,156.07l2.9-1.78s-1.14-1.15-2.25-.43A2,2,0,0,0,162.24,156.07Z" style="fill:#263238"></path><path d="M186.31,161.25s1.15-4.93,4.63-4.59c3.82.37,3.87,4.1,3.66,5.4-.56,3.41-3.8,6.76-9,6.26Z" style="fill:#945959"></path><path d="M183.22,159.18s-.57,4.73,2.83,4.73l.83-4.24Z" style="fill:#263238"></path><path d="M145.09,216.16a22.49,22.49,0,0,1,4,5.42s0-3.17-3.34-7.28Z" style="fill:#703838"></path><path d="M132.91,209.57l-11-20.85a1,1,0,0,1,1-1.5l12.49,1.16a1.73,1.73,0,0,1,1.41,1l10.82,21.89a1.1,1.1,0,0,1-1.17,1.57l-11.89-2A2.37,2.37,0,0,1,132.91,209.57Z" style="fill:#263238"></path><path d="M147.67,211.24l-10.82-21.89a1.73,1.73,0,0,0-1.41-1L123,187.22a1,1,0,0,0-1.11,1,1,1,0,0,1,.42-.05l12.49,1.15a1.76,1.76,0,0,1,1.41,1L147,212.2a1.08,1.08,0,0,1,.1.55A1.1,1.1,0,0,0,147.67,211.24Z" style="fill:#37474f"></path><path d="M126.39,197.17l5.63,10.7s12.2,1,11.82-4.52-2.82-5.41-2.82-5.41S132.85,199.83,126.39,197.17Z" style="fill:#945959"></path><path d="M223.78,225.81c0,4.26-8.05,29.44-8.05,29.44l-7.62-4.32A56.3,56.3,0,0,0,209.84,238a52.29,52.29,0,0,1,1.46-12s-4.31-8-12.75-20.57l0-.06c-8-11.86-2.61-19.64-1.93-20.53L198,185c8.91,1.09,12.06,10.37,15.27,16S223.82,221.56,223.78,225.81Z" style="fill:#945959"></path><path d="M208.11,250.93a14.13,14.13,0,0,1-2.36,1.43c-1.18.54-2.25.72-4.3,3.9-1.32,2.05-3.23,1.88-3,3.29s4.86.68,6.35-1.5a11.34,11.34,0,0,1-2.43,4.87c-1.73,1.68-4.22,4.4-4.22,5.84s7.06,4.05,11.34.3,6.29-13.81,6.29-13.81Z" style="fill:#945959"></path></g><g id="freepik--speech-bubbles--inject-73"><path d="M369.71,51.87,328.62,28.15c-3.37-1.94-6.1.12-6.1,4.62V56.7c0,4.49,2.73,9.72,6.1,11.67l3.79,2.18L326,84.15l16.51-7.78,27.22,15.72c3.37,2,6.11-.12,6.11-4.62V63.55C375.82,59.05,373.08,53.82,369.71,51.87Z" style="fill:#e0e0e0"></path><path d="M367.31,63.44a.42.42,0,0,1-.24-.07l-36.3-20.95a.51.51,0,0,1-.18-.69.49.49,0,0,1,.68-.18l36.3,21a.5.5,0,0,1-.26.93Z" style="fill:#BA68C8"></path><path d="M367.31,71.09a.5.5,0,0,1-.24-.06l-36.3-21a.49.49,0,0,1-.18-.68.5.5,0,0,1,.68-.19l36.3,21a.5.5,0,0,1-.26.93Z" style="fill:#BA68C8"></path><path d="M350.6,69.1a.47.47,0,0,1-.25-.07L330.77,57.72a.5.5,0,1,1,.5-.86l19.58,11.3a.52.52,0,0,1,.19.69A.52.52,0,0,1,350.6,69.1Z" style="fill:#BA68C8"></path><path d="M412.38,91.76,396,82.32c-2-1.17-3.68.07-3.68,2.79V99.54c0,2.71,1.65,5.87,3.68,7l3.78,2.18,3.1,13.34L405.4,112l7,4c2,1.17,3.68-.08,3.68-2.79V98.8C416.06,96.09,414.41,92.93,412.38,91.76Z" style="fill:#e0e0e0"></path><path d="M409.65,102.54c0,3.92-2.76,5.51-6.15,3.55a13.6,13.6,0,0,1-6.16-10.66c0-3.92,2.76-5.51,6.16-3.55A13.61,13.61,0,0,1,409.65,102.54Z" style="fill:#BA68C8"></path><g style="opacity:0.2"><path d="M409.65,102.54c0,3.92-2.76,5.51-6.15,3.55a13.6,13.6,0,0,1-6.16-10.66c0-3.92,2.76-5.51,6.16-3.55A13.61,13.61,0,0,1,409.65,102.54Z" style="fill:#fff"></path></g><path d="M399.47,95.7a.63.63,0,0,1-.27-.34c-.07-.21,0-.39.14-.39h1.57l-1.57-1.82a.54.54,0,0,1-.14-.54c.08-.13.26-.09.4.08l2.11,2.44a.65.65,0,0,1,.17.4c0,.13-.07.21-.17.21H399.6A.22.22,0,0,1,399.47,95.7Z" style="fill:#fff"></path><path d="M407.17,100.15A.42.42,0,0,1,407,100l-2.11-2.44a.66.66,0,0,1-.16-.4c0-.13.06-.22.16-.22H407c.15,0,.33.18.4.39s0,.39-.13.39h-1.58l1.58,1.82a.51.51,0,0,1,.13.54C407.39,100.21,407.28,100.22,407.17,100.15Z" style="fill:#fff"></path><path d="M403.5,103.07a10.66,10.66,0,0,1-4.29-5.36.42.42,0,0,1,0-.35c.05-.07.15-.08.26,0l8,4.65a.6.6,0,0,1,.26.32.42.42,0,0,1,0,.35C406.9,104,405.29,104.11,403.5,103.07ZM400,98.35a9.08,9.08,0,0,0,3.48,4c1.4.81,2.66.79,3.47,0Z" style="fill:#fff"></path><path d="M116.48,196.18l-15.75-5.32a33.79,33.79,0,1,0,0,10.65Z" style="fill:#BA68C8"></path><path d="M116.48,196.18l-15.75-5.32a33.79,33.79,0,1,0,0,10.65Z" style="fill:#fff;opacity:0.6000000000000001"></path><path d="M94.38,216.44a33.66,33.66,0,0,1-49,5.14l11.89-4.33,16.08-3.31,5.15-1.47A16.48,16.48,0,0,1,94.38,216.44Z" style="fill:#455a64"></path><path d="M89.58,181.18S92.2,168,80,162.66,48.82,159.32,44.65,176s6.56,27.17,12.6,29.42Z" style="fill:#263238"></path><path d="M57.25,217.26l1.81,2.86A13.9,13.9,0,0,0,72,226.53h0A5.06,5.06,0,0,0,76,219.15l-2.71-5.21V193.22H57.25Z" style="fill:#ffa8a7"></path><path d="M73.33,212.69a25.9,25.9,0,0,1-14.77-14.06v-5.41H73.33Z" style="fill:#f28f8f"></path><path d="M77.08,166.86s15.3.58,12.54,25.22c-1.3,11.59-2.25,18-12.17,18s-24.55-7.48-23.6-27.37S77.08,166.86,77.08,166.86Z" style="fill:#ffa8a7"></path><polygon points="78.96 188.54 78.96 197.19 84.03 195.63 78.96 188.54" style="fill:#f28f8f"></polygon><circle cx="73.33" cy="190.04" r="1.76" style="fill:#263238"></circle><path d="M83.15,188.81a1.77,1.77,0,1,0,1.77-1.76A1.76,1.76,0,0,0,83.15,188.81Z" style="fill:#263238"></path><path d="M87.06,185.14l-3.44-2s1.32-1.38,2.64-.55A2.4,2.4,0,0,1,87.06,185.14Z" style="fill:#263238"></path><path d="M72.41,184.55l-3.11,2.53s-.83-1.72.4-2.67A2.4,2.4,0,0,1,72.41,184.55Z" style="fill:#263238"></path><path d="M81.34,200.69a7.48,7.48,0,0,1-4.74-1.27s-.32,2.5,1.77,3S81.34,200.69,81.34,200.69Z" style="fill:#f28f8f"></path><path d="M84.92,170.35s-1.67,5.91-14.2,5-11.43,2.53-10.07,8.38c.94,4,1,14.77-2.09,9.51h-6.2V180.84A15.83,15.83,0,0,1,68.19,165h6.19a13.09,13.09,0,0,1,10.54,5.34Z" style="fill:#263238"></path><path d="M58.71,192.59s-.63-5.93-4.74-6c-4.52-.13-5.13,4.22-5.07,5.77.16,4.07,3.45,8.46,9.58,8.63Z" style="fill:#ffa8a7"></path><path d="M143.25,112.28a33.82,33.82,0,0,0-20.53-24.69,28.68,28.68,0,0,0-3-1,33.46,33.46,0,0,0-16.08-.72,34.25,34.25,0,0,0-4.07,1.07c-1,.33-1.93.69-2.84,1.09,0,0,0,0,0,0-.26.11-.51.22-.75.34a33.68,33.68,0,0,0-12.32,51.23c.63.8,1.27,1.56,2,2.3a33.92,33.92,0,0,0,8.33,6.47c.55.3,1.11.59,1.68.86a32.84,32.84,0,0,0,4.91,1.91,33.69,33.69,0,0,0,11,1.39l11.62,25.16-1.17-27.24a33.33,33.33,0,0,0,3.81-1.68,32.64,32.64,0,0,0,7.07-4.92,31.1,31.1,0,0,0,3.09-3.2A33.62,33.62,0,0,0,143.25,112.28Z" style="fill:#BA68C8"></path><path d="M143.25,112.28a33.82,33.82,0,0,0-20.53-24.69,28.68,28.68,0,0,0-3-1,33.46,33.46,0,0,0-16.08-.72,34.25,34.25,0,0,0-4.07,1.07c-1,.33-1.93.69-2.84,1.09,0,0,0,0,0,0-.26.11-.51.22-.75.34a33.68,33.68,0,0,0-12.32,51.23c.63.8,1.27,1.56,2,2.3a33.92,33.92,0,0,0,8.33,6.47c.55.3,1.11.59,1.68.86a32.84,32.84,0,0,0,4.91,1.91,33.69,33.69,0,0,0,11,1.39l11.62,25.16-1.17-27.24a33.33,33.33,0,0,0,3.81-1.68,32.64,32.64,0,0,0,7.07-4.92,31.1,31.1,0,0,0,3.09-3.2A33.62,33.62,0,0,0,143.25,112.28Z" style="fill:#fff;opacity:0.6000000000000001"></path><path d="M129.16,140.4c0,2-1.38,4.25-3.73,6.35a27.7,27.7,0,0,1-9.35,5.27,33.42,33.42,0,0,1-15.55-.9,32.84,32.84,0,0,1-4.91-1.91c-.57-.27-1.13-.56-1.68-.86a33.92,33.92,0,0,1-8.33-6.47c-.69-.74-1.33-1.5-2-2.3-.73-6.77,4-13.54,5-16.28,1.33-3.91,2.13-18.15,2.29-21.22,0,0,0-.1,0-.15,0-.28,0-.43,0-.43a56,56,0,0,1,9.67-1.13c.3,0,.61,0,.94,0,6-.08,13.22.91,17.41,5.31a12,12,0,0,1,2.85,4.86,15.56,15.56,0,0,1,.68,3.94c.06,1,.12,2,.2,2.92,0,.59.1,1.16.17,1.71,0,.17,0,.34,0,.49a47.88,47.88,0,0,0,1.3,7.14,29,29,0,0,0,.89,2.79c1.14,3,2.38,4.68,3.18,6.54A10.13,10.13,0,0,1,129.16,140.4Z" style="fill:#263238"></path><path d="M135.91,140.63a31.1,31.1,0,0,1-3.09,3.2,32.64,32.64,0,0,1-7.07,4.92l-.32-2-2.73-17.38a12.3,12.3,0,0,1,2.41.14c3.28.46,8.9,2.29,10.42,9.4Z" style="fill:#945959"></path><path d="M132.82,143.83a32.64,32.64,0,0,1-7.07,4.92,33.05,33.05,0,0,1-8.94,3.14,6.6,6.6,0,0,1-.73.13,33.42,33.42,0,0,1-15.55-.9,32.84,32.84,0,0,1-4.91-1.91c-.57-.27-1.13-.56-1.68-.86-.35-11.62,1.73-16.73,1.73-16.73l1.12-.3a.8.8,0,0,1,.21,0c2.85-.69,7-1.4,7-1.4l13.26-.29,5.48-.21a66.18,66.18,0,0,1,5.59,6.68A38.76,38.76,0,0,1,132.82,143.83Z" style="fill:#37474f"></path><path d="M99.82,86.56s-.69-5.28-1.62-5.31-1.38,4.46-1.38,4.46-4.21-.92-3.92.36S98,89.23,98,89.23Z" style="fill:#263238"></path><path d="M90.89,103.52C91,118.21,104,120.89,104,120.89l26.14-9.07a9.48,9.48,0,0,0,3.23-5.23,17.15,17.15,0,0,0,.62-4.79v0c0-6.18-3.74-13.3-13.38-16.57a32.87,32.87,0,0,0-6.51-1.48,30.09,30.09,0,0,0-3.2-.25c-7.82-.23-13.64,2.67-16.93,7.92a17.72,17.72,0,0,0-1.77,3.78A25.31,25.31,0,0,0,90.89,103.52Z" style="fill:#263238"></path><path d="M104,129.87l.6,1a30.34,30.34,0,0,0,12.25,11.73l1.66.86A1.66,1.66,0,0,0,120.9,142h0a23,23,0,0,0-3.09-11.42l-.59-1v-19H104Z" style="fill:#945959"></path><path d="M104,113.42v.48a27.19,27.19,0,0,0,13.26,15.68v-19H104.33Z" style="fill:#703838"></path><path d="M117,88.47c4.69.6,14.33,4.5,13.91,16.92s-2.76,21.81-9.22,21.91-20.57-6.37-20.5-22.52S112.45,87.88,117,88.47Z" style="fill:#945959"></path><polygon points="121.84 110.44 120.91 117.68 125.31 116.92 121.84 110.44" style="fill:#703838"></polygon><path d="M115.61,109.49a1.49,1.49,0,1,0,3,.18,1.49,1.49,0,0,0-3-.18Z" style="fill:#263238"></path><path d="M125.44,109a1.49,1.49,0,1,0,1.57-1.39A1.49,1.49,0,0,0,125.44,109Z" style="fill:#263238"></path><path d="M128.92,106.15l-2.8-1.9s1.18-1.09,2.25-.33A2,2,0,0,1,128.92,106.15Z" style="fill:#263238"></path><path d="M122.06,120.57a6.34,6.34,0,0,1-4-1.07s-.27,2.11,1.5,2.51A2.29,2.29,0,0,0,122.06,120.57Z" style="fill:#703838"></path><path d="M128.39,94.17s-3.94,16.73-27.06,14.3c0,0-4.8-17.74,9.66-21.45S128.39,94.17,128.39,94.17Z" style="fill:#263238"></path><path d="M104.78,110.2s-.93-5-4.4-4.77c-3.81.2-4,3.9-3.88,5.2.41,3.41,3.47,6.89,8.64,6.62Z" style="fill:#945959"></path><path d="M100.51,150.57l0,.55a32.84,32.84,0,0,1-4.91-1.91c-.57-.27-1.13-.56-1.68-.86a33.92,33.92,0,0,1-8.33-6.47c1.17-7.17,6.72-9.82,11.18-10.56a.8.8,0,0,1,.21,0S102.32,134.53,100.51,150.57Z" style="fill:#945959"></path></g></svg>